<?xml version="1.0" encoding="UTF-8" standalone="no"?>
<svg
   xmlns:dc="http://purl.org/dc/elements/1.1/"
   xmlns:cc="http://creativecommons.org/ns#"
   xmlns:rdf="http://www.w3.org/1999/02/22-rdf-syntax-ns#"
   xmlns:svg="http://www.w3.org/2000/svg"
   xmlns="http://www.w3.org/2000/svg"
   xmlns:sodipodi="http://sodipodi.sourceforge.net/DTD/sodipodi-0.dtd"
   xmlns:inkscape="http://www.inkscape.org/namespaces/inkscape"
   viewBox="0.0 0.0 348.0 348.0"
   fill="none"
   version="1.1"
   id="svg6"
   sodipodi:docname="USA Mazeo.svg"
   inkscape:version="0.92.2 (5c3e80d, 2017-08-06)">
  <metadata
     id="metadata12">
    <rdf:RDF>
      <cc:Work
         rdf:about="">
        <dc:format>image/svg+xml</dc:format>
        <dc:type
           rdf:resource="http://purl.org/dc/dcmitype/StillImage" />
        <dc:title></dc:title>
      </cc:Work>
    </rdf:RDF>
  </metadata>
  <defs
     id="defs10" />
  <sodipodi:namedview
     pagecolor="#ffffff"
     bordercolor="#666666"
     borderopacity="1"
     objecttolerance="10"
     gridtolerance="10"
     guidetolerance="10"
     inkscape:pageopacity="0"
     inkscape:pageshadow="2"
     inkscape:window-width="1366"
     inkscape:window-height="745"
     id="namedview8"
     showgrid="false"
     inkscape:zoom="0.67816092"
     inkscape:cx="-65.618644"
     inkscape:cy="174"
     inkscape:window-x="-8"
     inkscape:window-y="-8"
     inkscape:window-maximized="1"
     inkscape:current-layer="svg6" />
  <path
     style="fill:#000000;stroke-width:0.42234999"
     d="M 7.9131656,174.932 V 7.8925854 H 160.38152 312.84985 v 1.0699103 c 0,0.58845 -0.47673,2.0106903 -1.05939,3.1605303 -3.13237,6.18142 -3.03058,12.846118 0.29137,19.078743 1.57968,2.96377 6.21254,7.47911 9.25633,9.02152 2.9339,1.48672 7.99829,2.72434 11.14808,2.72434 2.99662,0 7.39401,-0.78822 7.39401,-1.32536 0,-0.20022 0.47514,-0.36404 1.05588,-0.36404 H 341.992 V 191.61483 341.97142 H 174.95259 7.9131656 Z M 339.88025,191.98792 V 44.116159 l -0.95029,0.27536 c -0.52266,0.15145 -2.6608,0.38256 -4.75143,0.51359 -16.62166,1.04171 -29.76886,-13.25643 -26.18126,-28.473233 0.34401,-1.45914 1.0064,-3.39966 1.47198,-4.31226 0.46558,-0.91261 0.8465,-1.76188 0.8465,-1.88728 0,-0.1254 -67.56543,-0.228 -150.14541,-0.228 H 10.024916 V 174.932 339.85967 H 174.95259 339.88025 Z M 52.259915,260.03552 V 200.48418 H 168.82852 285.39711 v 28.50862 c 0,25.05943 0.0766,28.50862 0.63353,28.50862 0.34844,0 0.63352,0.28509 0.63352,0.63353 0,0.34844 -0.28508,0.63352 -0.63352,0.63352 -0.55727,0 -0.63353,3.66037 -0.63353,30.4092 v 30.4092 H 168.82852 52.259915 Z m 56.914535,28.40304 -0.10846,-29.45891 -27.558335,-0.10865 -27.55834,-0.10864 v 29.56756 29.56755 h 27.66679 27.666805 z m -49.448185,23.26928 c -0.57326,-0.57325 -0.30135,-3.54519 0.34712,-3.79403 0.42829,-0.16435 0.63353,-0.83611 0.63353,-2.07357 0,-1.00676 0.19006,-1.94793 0.42235,-2.09149 0.23229,-0.14357 0.42235,-0.98677 0.42235,-1.87379 0,-0.91832 0.27279,-1.83915 0.63352,-2.13854 0.36074,-0.29938 0.63353,-1.22022 0.63353,-2.13854 0,-0.88701 0.19006,-1.73022 0.42235,-1.87378 0.23229,-0.14357 0.42235,-1.11104 0.42235,-2.14993 0,-1.28942 0.20106,-1.96606 0.63352,-2.13201 0.42829,-0.16435 0.63353,-0.83611 0.63353,-2.07357 0,-1.00676 0.19006,-1.94793 0.42235,-2.09149 0.23229,-0.14357 0.42235,-1.11103 0.42235,-2.14993 0,-1.28941 0.20106,-1.96606 0.63352,-2.13201 0.42829,-0.16435 0.63353,-0.83611 0.63353,-2.07357 0,-1.00676 0.19006,-1.94793 0.42235,-2.09149 0.23229,-0.14357 0.42235,-1.11103 0.42235,-2.14993 0,-1.28941 0.20106,-1.96606 0.63352,-2.13201 0.42376,-0.16261 0.63353,-0.82949 0.63353,-2.01403 0,-0.974 0.17806,-1.95147 0.39569,-2.17215 0.21762,-0.22068 0.4552,-1.25649 0.52793,-2.30181 l 0.13225,-1.90057 h 16.68283 16.682825 l 0.13006,1.79885 c 0.0958,1.32455 -0.0434,1.86543 -0.52794,2.05135 -0.4557,0.17487 -0.65799,0.81524 -0.65799,2.08296 0,1.00676 -0.19006,1.94792 -0.42235,2.09149 -0.2323,0.14356 -0.42235,1.11103 -0.42235,2.14993 0,1.28941 -0.20107,1.96606 -0.63353,2.13201 -0.42829,0.16435 -0.63352,0.8361 -0.63352,2.07357 0,1.00675 -0.19006,1.94792 -0.422355,2.09149 -0.2323,0.14356 -0.42235,1.11103 -0.42235,2.14993 0,1.28941 -0.20107,1.96606 -0.63353,2.13201 -0.4107,0.1576 -0.63352,0.81264 -0.63352,1.86239 0,0.89061 -0.19006,1.73675 -0.42235,1.88032 -0.2323,0.14356 -0.42235,1.11103 -0.42235,2.14993 0,1.28941 -0.20107,1.96606 -0.63353,2.13201 -0.42829,0.16435 -0.63352,0.8361 -0.63352,2.07357 0,1.00675 -0.19006,1.94792 -0.42235,2.09149 -0.2323,0.14356 -0.42235,1.11103 -0.42235,2.14993 0,1.28941 -0.20107,1.96606 -0.63353,2.13201 -0.42375,0.16261 -0.63352,0.82949 -0.63352,2.01403 0,0.974 -0.17806,1.95147 -0.39569,2.17215 -0.21763,0.22067 -0.4552,1.25649 -0.52794,2.3018 l -0.13225,1.90058 -16.50201,0.11042 c -9.07611,0.0607 -16.63089,-0.0185 -16.78841,-0.17598 z m 111.955985,-23.26928 -0.10846,-29.45891 h -30.4092 -30.4092 l -0.10846,29.45891 -0.10846,29.45891 h 30.62612 30.62612 z m -52.94181,21.79254 c -0.16534,-0.26753 0.0135,-0.71611 0.39743,-0.99685 0.38392,-0.28073 0.69805,-0.81086 0.69805,-1.17805 0,-0.36719 0.19005,-0.78509 0.42235,-0.92865 0.23229,-0.14357 0.42235,-0.63589 0.42235,-1.09406 0,-0.45816 0.28508,-0.94242 0.63352,-1.07613 0.34844,-0.13371 0.63353,-0.59167 0.63353,-1.0177 0,-0.42602 0.19005,-0.89205 0.42235,-1.03561 0.23229,-0.14357 0.42235,-0.63589 0.42235,-1.09406 0,-0.45816 0.28508,-0.94242 0.63352,-1.07613 0.34844,-0.13371 0.63353,-0.59167 0.63353,-1.0177 0,-0.42602 0.19005,-0.89205 0.42235,-1.03561 0.23229,-0.14357 0.42235,-0.63589 0.42235,-1.09406 0,-0.45816 0.28508,-0.94242 0.63352,-1.07613 0.34844,-0.13371 0.63353,-0.59167 0.63353,-1.0177 0,-0.42602 0.19005,-0.89205 0.42235,-1.03561 0.23229,-0.14357 0.42235,-0.63589 0.42235,-1.09406 0,-0.45816 0.28508,-0.94242 0.63352,-1.07613 0.34844,-0.13371 0.63353,-0.59167 0.63353,-1.0177 0,-0.42602 0.19005,-0.89205 0.42235,-1.03561 0.23229,-0.14357 0.42235,-0.63589 0.42235,-1.09406 0,-0.45816 0.28508,-0.94242 0.63352,-1.07613 0.34844,-0.13371 0.63353,-0.59167 0.63353,-1.0177 0,-0.42602 0.19005,-0.89205 0.42235,-1.03561 0.23229,-0.14357 0.42235,-0.63589 0.42235,-1.09406 0,-0.45816 0.28508,-0.94242 0.63352,-1.07613 0.34844,-0.13371 0.64742,-0.55537 0.6644,-0.93704 0.017,-0.38165 0.38862,-1.26409 0.82587,-1.96097 0.43726,-0.69688 1.10438,-1.93225 1.48251,-2.74528 0.37812,-0.81302 0.85648,-1.76331 1.06302,-2.11175 0.20654,-0.34843 0.68168,-1.29872 1.05587,-2.11175 0.37419,-0.81302 0.84934,-1.76331 1.05588,-2.11175 0.54504,-0.9195 1.53677,-3.0499 1.81863,-3.90673 0.13373,-0.40651 0.54015,-0.73912 0.90317,-0.73912 0.36302,0 0.76298,0.33261 0.88879,0.73912 0.12581,0.40651 0.40493,1.06913 0.62027,1.47249 0.21533,0.40336 0.39152,1.00071 0.39152,1.32745 0,0.32674 0.28508,0.70347 0.63352,0.83718 0.34844,0.13371 0.63353,0.61797 0.63353,1.07613 0,0.45817 0.19005,0.95049 0.42235,1.09406 0.23229,0.14356 0.42235,0.60959 0.42235,1.03561 0,0.42603 0.28508,0.88399 0.63352,1.0177 0.34844,0.13371 0.63353,0.50496 0.63353,0.825 0,0.60217 0.73725,2.10909 2.10456,4.30164 0.43458,0.69688 0.80404,1.57932 0.82102,1.96097 0.017,0.38167 0.31595,0.80333 0.66439,0.93704 0.34844,0.13371 0.63353,0.61797 0.63353,1.07613 0,0.45817 0.19005,0.95049 0.42235,1.09406 0.23229,0.14356 0.42235,0.60959 0.42235,1.03561 0,0.42603 0.28508,0.88399 0.63352,1.0177 0.34844,0.13371 0.63353,0.61797 0.63353,1.07613 0,0.45817 0.19005,0.95049 0.42235,1.09406 0.23229,0.14356 0.42235,0.60959 0.42235,1.03561 0,0.42603 0.28508,0.88399 0.63352,1.0177 0.34844,0.13371 0.63353,0.61797 0.63353,1.07613 0,0.45817 0.19005,0.95049 0.42235,1.09406 0.23229,0.14356 0.42235,0.60959 0.42235,1.03561 0,0.42603 0.28508,0.88399 0.63352,1.0177 0.34844,0.13371 0.63353,0.61797 0.63353,1.07613 0,0.45817 0.19005,0.95049 0.42235,1.09406 0.23229,0.14356 0.42235,0.60959 0.42235,1.03561 0,0.42603 0.28508,0.88399 0.63352,1.0177 0.34844,0.13371 0.63353,0.61797 0.63353,1.07613 0,0.45817 0.19005,0.95049 0.42235,1.09406 0.23229,0.14356 0.42235,0.60959 0.42235,1.03561 0,0.42603 0.28508,0.88399 0.63352,1.0177 0.34844,0.13371 0.63353,0.61797 0.63353,1.07613 0,0.45817 0.19005,0.95049 0.42235,1.09406 0.23229,0.14356 0.42235,0.56146 0.42235,0.92865 0,0.36719 0.31412,0.89732 0.69805,1.17805 1.88371,1.37741 0.34175,1.48327 -21.60438,1.48327 -15.91753,0 -21.78129,-0.12963 -22.0018,-0.48642 z m 107.84731,-21.79254 -0.10846,-29.45891 h -26.60805 -26.60805 l -0.10846,29.45891 -0.10846,29.45891 h 26.82497 26.82497 z m -28.08915,18.61532 c -0.52266,-0.36459 -0.95029,-0.91017 -0.95029,-1.21241 0,-0.61344 -0.72042,-1.41717 -7.01588,-7.82716 -2.41316,-2.45706 -4.38757,-4.70514 -4.38757,-4.99573 0,-0.29058 -0.76023,-1.25876 -1.6894,-2.15151 -0.92917,-0.89274 -1.6894,-1.75127 -1.6894,-1.90785 0,-0.15657 -0.42762,-0.88151 -0.95028,-1.61098 -1.24771,-1.74141 -2.00617,-3.20654 -2.00617,-3.87538 0,-0.29704 -0.28508,-0.64946 -0.63352,-0.78317 -0.34844,-0.13371 -0.63353,-0.61797 -0.63353,-1.07614 0,-0.45816 -0.19005,-0.95049 -0.42235,-1.09405 -0.62159,-0.38417 -0.53149,-8.35614 0.10805,-9.56018 0.29173,-0.54922 0.90941,-1.43043 1.37264,-1.95827 0.46324,-0.52783 0.94506,-1.38309 1.07073,-1.90057 0.13289,-0.54724 0.61113,-0.99634 1.14309,-1.07343 0.50302,-0.0729 1.35049,-0.59228 1.88326,-1.15417 0.84485,-0.89103 1.34654,-1.02161 3.92511,-1.02161 2.59942,0 3.07656,0.12663 3.95107,1.04858 0.54704,0.57671 1.21773,1.04857 1.49042,1.04857 0.2727,0 1.72021,1.23538 3.21668,2.74528 1.49648,1.5099 3.04356,2.74527 3.43794,2.74527 0.39439,0 1.93435,-1.23537 3.42214,-2.74527 1.48779,-1.5099 2.90869,-2.74528 3.15755,-2.74528 0.24885,0 0.90004,-0.47186 1.44708,-1.04857 0.86776,-0.91485 1.36182,-1.04951 3.87366,-1.05588 2.4269,-0.006 3.09645,0.15853 4.26337,1.04858 0.76137,0.58073 1.59019,1.05587 1.84181,1.05587 1.2988,0 4.54127,7.39731 4.35055,9.92523 -0.11648,1.54376 -0.56149,3.93257 -0.86547,4.64585 -1.26526,2.96879 -2.9886,6.18319 -3.75745,7.00846 -0.49411,0.53036 -0.89838,1.2041 -0.89838,1.49719 0,0.29309 -0.2441,0.68489 -0.54245,0.87065 -0.29836,0.18576 -1.26435,1.3349 -2.14666,2.55363 -0.88231,1.21874 -1.82631,2.35909 -2.0978,2.5341 -0.75632,0.48759 -7.88359,8.39851 -7.88359,8.75041 0,0.37229 -3.82908,4.03658 -4.18509,4.00498 -0.13727,-0.0122 -0.67721,-0.32045 -1.19987,-0.68504 z m 85.20911,-18.72394 V 258.7624 l -27.76951,0.10863 -27.76951,0.10862 -0.10846,29.45891 -0.10846,29.45891 h 27.87797 27.87797 z m -40.40376,14.54572 c -0.1397,-0.36405 -0.0387,-0.87721 0.22443,-1.14035 0.26314,-0.26313 0.47843,-1.01655 0.47843,-1.67426 0,-0.67335 0.2768,-1.30205 0.63353,-1.43894 0.38784,-0.14883 0.63352,-0.78918 0.63352,-1.65122 0,-0.77446 0.19006,-1.52558 0.42235,-1.66914 0.2323,-0.14357 0.42235,-0.79671 0.42235,-1.45144 0,-0.65472 0.28509,-1.42701 0.63353,-1.71619 0.92026,-0.76374 0.84334,-3.75044 -0.10559,-4.09966 -0.40651,-0.1496 -1.39877,-0.90386 -2.20502,-1.67614 -0.80625,-0.77228 -1.67679,-1.40415 -1.93453,-1.40415 -0.25774,0 -1.494,-0.94268 -2.74725,-2.09485 -1.25325,-1.15217 -2.6634,-2.14997 -3.13367,-2.21734 -0.53265,-0.0763 -0.85504,-0.44097 -0.85504,-0.96718 0,-0.8069 0.32029,-0.8499 7.1584,-0.96088 7.87262,-0.12777 8.67972,-0.37601 8.67972,-2.66963 0,-0.64717 0.19006,-1.29413 0.42235,-1.43769 0.2323,-0.14357 0.42235,-0.79671 0.42235,-1.45144 0,-0.65472 0.28509,-1.42701 0.63353,-1.71619 0.34844,-0.28917 0.63352,-1.03466 0.63352,-1.65664 0,-0.62198 0.17806,-1.31142 0.39569,-1.5321 0.21763,-0.22068 0.4552,-1.25649 0.52794,-2.30181 0.10959,-1.57492 0.27698,-1.90057 0.97695,-1.90057 0.69996,0 0.86736,0.32565 0.97695,1.90057 0.0727,1.04532 0.31031,2.08113 0.52794,2.30181 0.21762,0.22068 0.39568,0.8151 0.39568,1.32093 0,0.50582 0.28509,1.15629 0.63353,1.44546 0.34844,0.28918 0.63352,1.1565 0.63352,1.92737 0,0.77087 0.19006,1.51904 0.42235,1.66261 0.23229,0.14356 0.42235,0.72495 0.42235,1.29198 0,0.56702 0.3755,1.40644 0.83444,1.86539 0.75424,0.75423 1.51545,0.84557 7.91907,0.95028 6.5703,0.10744 7.08462,0.17258 7.08462,0.89734 0,0.44603 -0.64948,1.17121 -1.51302,1.6894 -1.64531,0.98729 -5.99418,4.19959 -8.5178,6.29167 -1.65808,1.37456 -2.17969,3.37773 -0.99764,3.83132 0.32239,0.12372 0.69521,0.9518 0.82849,1.84018 0.57995,3.86563 0.82023,4.78163 1.3751,5.24213 0.32397,0.26887 0.58904,0.94332 0.58904,1.49875 0,0.55544 0.23281,1.38269 0.51736,1.83832 0.81921,1.31175 -0.13195,1.96622 -1.52808,1.05143 -0.60556,-0.39678 -1.10103,-0.88962 -1.10103,-1.09519 0,-0.20558 -0.33829,-0.37378 -0.75176,-0.37378 -0.41347,0 -1.3792,-0.6652 -2.14607,-1.47822 -0.76686,-0.81303 -1.67884,-1.47823 -2.02662,-1.47823 -0.34778,0 -1.36275,-0.76023 -2.2555,-1.6894 -0.89274,-0.92917 -1.93806,-1.6894 -2.32292,-1.6894 -0.38486,0 -1.43018,0.76023 -2.32293,1.6894 -0.89274,0.92917 -1.90772,1.6894 -2.2555,1.6894 -0.34777,0 -1.25975,0.6652 -2.02662,1.47823 -0.76686,0.81302 -1.62777,1.47822 -1.91313,1.47822 -0.28535,0 -1.03151,0.47515 -1.65813,1.05588 -1.32235,1.22551 -1.78913,1.31139 -2.14118,0.39396 z m -134.12931,-73.14375 0.10864,-27.55833 H 81.616295 53.949315 v 27.66698 27.66698 l 27.55834,-0.10864 27.558335,-0.10865 z M 81.402065,251.7997 c -0.33425,-0.40274 -1.26715,-0.63352 -2.56089,-0.63352 -1.11931,0 -2.15257,-0.19006 -2.29614,-0.42235 -0.14356,-0.2323 -0.82594,-0.42235 -1.5164,-0.42235 -0.72628,0 -1.35785,-0.26701 -1.49849,-0.63353 -0.13371,-0.34844 -0.53743,-0.63352 -0.89717,-0.63352 -0.35973,0 -1.277,-0.47515 -2.03838,-1.05588 -0.76138,-0.58073 -1.53955,-1.0573 -1.72927,-1.05905 -0.42634,-0.004 -3.93491,-3.54184 -3.93491,-3.96784 0,-0.16986 -0.47515,-0.93179 -1.05588,-1.69317 -0.58073,-0.76138 -1.05587,-1.58362 -1.05587,-1.82721 0,-0.24358 -0.28509,-0.55228 -0.63353,-0.68599 -0.39482,-0.15151 -0.63352,-0.79567 -0.63352,-1.70966 0,-0.8066 -0.19006,-1.58401 -0.42235,-1.72758 -0.23229,-0.14356 -0.42235,-1.17683 -0.42235,-2.29613 0,-1.29375 -0.23079,-2.22665 -0.63353,-2.56089 -0.34844,-0.28918 -0.63352,-0.76433 -0.63352,-1.05588 0,-0.29155 0.28508,-0.7667 0.63352,-1.05587 0.41782,-0.34676 0.63353,-1.29062 0.63353,-2.77207 0,-1.23545 0.19006,-2.36374 0.42235,-2.50731 0.23229,-0.14356 0.42235,-0.82595 0.42235,-1.5164 0,-0.72629 0.26701,-1.35785 0.63352,-1.49849 0.34844,-0.13371 0.63353,-0.59167 0.63353,-1.01769 0,-0.42603 0.19776,-0.89681 0.43946,-1.04619 0.24171,-0.14939 0.92422,-1.03951 1.5167,-1.97806 1.3661,-2.16404 3.74623,-4.55779 4.53186,-4.55779 0.33179,0 1.05085,-0.47187 1.59789,-1.04858 0.54704,-0.57672 1.316,-1.05186 1.7088,-1.05588 0.3928,-0.004 0.83165,-0.19735 0.97521,-0.42964 0.14357,-0.2323 0.80877,-0.42235 1.47823,-0.42235 0.66946,0 1.31917,-0.16501 1.44382,-0.36668 0.12464,-0.20168 1.19775,-0.49551 2.3847,-0.65297 1.18694,-0.15745 2.50618,-0.50366 2.93163,-0.76936 0.56139,-0.35059 0.92777,-0.35643 1.33579,-0.0213 0.30923,0.254 1.65758,0.59738 2.99633,0.76306 1.33875,0.16569 2.53782,0.46909 2.66461,0.67423 0.12678,0.20516 0.77826,0.37301 1.44772,0.37301 0.66946,0 1.33466,0.19005 1.47822,0.42235 0.14357,0.23229 0.58241,0.42563 0.97522,0.42964 0.3928,0.004 1.16176,0.47916 1.7088,1.05588 0.54704,0.57671 1.27859,1.04858 1.62566,1.04858 0.72597,0 4.348505,3.68895 4.348505,4.42823 0,0.271 0.47514,0.9391 1.05587,1.48467 0.58073,0.54557 1.05588,1.31859 1.05588,1.71783 0,0.39924 0.28508,0.83529 0.63352,0.969 0.36652,0.14064 0.63353,0.7722 0.63353,1.49849 0,0.69045 0.19005,1.37284 0.42235,1.5164 0.23229,0.14357 0.42235,1.36982 0.42235,2.72502 0,1.80059 0.17056,2.52943 0.63352,2.70709 0.34844,0.13371 0.63353,0.51088 0.63353,0.83817 0,0.32729 -0.28509,0.83167 -0.63353,1.12085 -0.40274,0.33424 -0.63352,1.26714 -0.63352,2.56089 0,1.1193 -0.19006,2.15257 -0.42235,2.29613 -0.2323,0.14357 -0.42235,0.92098 -0.42235,1.72758 0,0.91399 -0.2387,1.55815 -0.63353,1.70966 -0.34844,0.13371 -0.63352,0.44241 -0.63352,0.68599 0,0.24359 -0.47515,1.06583 -1.05588,1.82721 -0.58073,0.76138 -1.05587,1.52331 -1.05587,1.69317 0,0.426 -3.508575,3.96391 -3.934925,3.96784 -0.18972,0.002 -0.96789,0.47832 -1.72926,1.05905 -0.76138,0.58073 -1.67866,1.05588 -2.03839,1.05588 -0.35973,0 -0.76346,0.28508 -0.89717,0.63352 -0.14064,0.36652 -0.7722,0.63353 -1.49848,0.63353 -0.69046,0 -1.37284,0.19005 -1.51641,0.42235 -0.14356,0.23229 -1.27479,0.42235 -2.51384,0.42235 -1.61288,0 -2.32187,0.17995 -2.49592,0.63352 -0.1337,0.34844 -0.60591,0.63353 -1.04934,0.63353 -0.44344,0 -1.04284,-0.28509 -1.33202,-0.63353 z m 90.280375,-22.06779 0.10864,-27.55833 h -30.62343 -30.62343 v 27.38235 c 0,15.0603 0.12795,27.51031 0.28434,27.6667 0.15639,0.15639 13.88804,0.23558 30.51479,0.17598 l 30.23044,-0.10836 z m -53.76314,22.17705 c -0.11194,-0.29238 -0.15413,-10.60466 -0.0937,-22.91616 l 0.10978,-22.38455 h 22.8069 22.8069 v 22.8069 22.8069 l -22.71316,0.10926 c -17.94549,0.0863 -22.75588,-0.003 -22.91668,-0.42235 z m 108.66863,-22.17705 0.10865,-27.55833 H 199.8743 173.05202 v 27.38235 c 0,15.0603 0.12811,27.51048 0.28471,27.66707 0.15659,0.1566 12.17773,0.23579 26.71364,0.17598 l 26.42892,-0.10873 z m -39.34579,9.55143 -10.93969,-10.94129 11.00531,-10.97249 c 6.05292,-6.03487 11.13631,-10.97248 11.29643,-10.97248 0.16012,0 5.24334,4.93745 11.29606,10.97211 l 11.00494,10.97211 -11.08351,10.99009 c -6.09592,6.04455 -11.20867,10.9683 -11.36167,10.94166 -0.15299,-0.0266 -5.20104,-4.972 -11.21787,-10.98971 z m 96.46557,-9.44584 v -27.66392 h -27.8751 -27.8751 v 27.38235 c 0,15.0603 0.12671,27.50907 0.28157,27.66393 0.15486,0.15486 12.69865,0.28156 27.8751,0.28156 h 27.59353 z m -49.97432,22.31792 c -0.57244,-0.57244 -0.29961,-3.54437 0.3482,-3.79296 0.42829,-0.16435 0.63352,-0.83611 0.63352,-2.07357 0,-1.00676 0.19006,-1.94792 0.42235,-2.09149 0.2323,-0.14356 0.42235,-1.11103 0.42235,-2.14993 0,-1.28941 0.20107,-1.96606 0.63353,-2.13201 0.42829,-0.16435 0.63352,-0.83611 0.63352,-2.07357 0,-1.00676 0.19006,-1.94792 0.42235,-2.09149 0.2323,-0.14356 0.42235,-1.11103 0.42235,-2.14993 0,-1.28941 0.20107,-1.96606 0.63353,-2.13201 0.4107,-0.1576 0.63352,-0.81264 0.63352,-1.86239 0,-0.89061 0.19006,-1.73675 0.42235,-1.88032 0.2323,-0.14356 0.42235,-1.11103 0.42235,-2.14993 0,-1.28941 0.20107,-1.96606 0.63353,-2.13201 0.42829,-0.16435 0.63352,-0.8361 0.63352,-2.07357 0,-1.00675 0.19006,-1.94792 0.42235,-2.09149 0.2323,-0.14356 0.42235,-1.11103 0.42235,-2.14993 0,-1.28941 0.20107,-1.96606 0.63353,-2.13201 0.42375,-0.16261 0.63352,-0.82949 0.63352,-2.01403 0,-0.974 0.17806,-1.95147 0.39569,-2.17215 0.21763,-0.22067 0.4552,-1.25649 0.52794,-2.3018 l 0.13225,-1.90058 h 11.40345 11.40345 l 0.13225,1.90058 c 0.0727,1.04531 0.31031,2.08113 0.52794,2.3018 0.21762,0.22068 0.39568,1.19815 0.39568,2.17215 0,1.18454 0.20978,1.85142 0.63353,2.01403 0.43246,0.16595 0.63352,0.8426 0.63352,2.13201 0,1.0389 0.19006,2.00637 0.42235,2.14993 0.23229,0.14357 0.42235,1.08474 0.42235,2.09149 0,1.23747 0.20524,1.90922 0.63353,2.07357 0.43246,0.16595 0.63352,0.8426 0.63352,2.13201 0,1.0389 0.19006,2.00637 0.42235,2.14993 0.23229,0.14357 0.42235,0.98971 0.42235,1.88032 0,1.04975 0.22283,1.70479 0.63353,1.86239 0.43246,0.16595 0.63352,0.8426 0.63352,2.13201 0,1.0389 0.19006,2.00637 0.42235,2.14993 0.23229,0.14357 0.42235,1.08473 0.42235,2.09149 0,1.23746 0.20524,1.90922 0.63353,2.07357 0.43246,0.16595 0.63352,0.8426 0.63352,2.13201 0,1.0389 0.19006,2.00637 0.42235,2.14993 0.23229,0.14357 0.42235,1.08473 0.42235,2.09149 0,1.26772 0.20229,1.90809 0.658,2.08296 0.48451,0.18592 0.6237,0.7268 0.52794,2.05135 l -0.13006,1.79885 -21.78246,0.10935 c -11.98035,0.0601 -21.91086,-0.0191 -22.06779,-0.17598 z M 325.22181,36.870769 c -2.40511,-0.78628 -5.13494,-2.86259 -6.56697,-4.99484 -4.52198,-6.733059 -2.19508,-15.659563 5.04521,-19.354513 2.85631,-1.45767 7.51656,-1.47087 10.33955,-0.0293 8.12866,4.150953 9.93505,15.059303 3.52473,21.284923 -3.20917,3.11671 -8.33906,4.40254 -12.34252,3.09372 z m 7.96405,-2.53042 c 3.49565,-1.67917 6.27204,-6.09521 6.27204,-9.976118 0,-2.4831 -1.47392,-5.954162 -3.2705,-7.701998 -4.28412,-4.167887 -9.72694,-4.336697 -14.0652,-0.436217 -6.24143,5.611575 -4.35356,15.460333 3.56187,18.581823 1.75032,0.69024 5.58973,0.45098 7.50179,-0.46749 z"
     id="path833"
     inkscape:connector-curvature="0"
     sodipodi:nodetypes="ccccscccsssccccccccccccssccccccccccssssscccccccccccccccscscscssscssscscscccccccscssscssscssscscsccccccccccccccccscssscssscssscssscssscsscccccscsscssscsssccsscssscssscssscssscssscscsccccccccccsssscsssssccccccscscssscccscccscccscscccccccccccscscsccssscssscscsscsccscscscssccccssccsscscscsssscccccccccccscscsscssscscscscscscscsscccsccccccscccsssscscscscscscsssccscscscsccccccsssccccccccccccccccscsccscssscscsccccsssccccscssscssscssscscscccccccscscssscssscssscscccccccccscccssccc" />
  <rect
     style="opacity:1;fill:none;fill-opacity:1;stroke:#000000;stroke-width:3;stroke-linecap:butt;stroke-miterlimit:4;stroke-dasharray:none;stroke-opacity:1"
     id="rect812"
     width="125.33898"
     height="120.91525"
     x="26.542376"
     y="32.440678" />
  <path
     style="opacity:1;fill:none;fill-opacity:1;stroke:#000000;stroke-width:3;stroke-linecap:butt;stroke-miterlimit:4;stroke-dasharray:none;stroke-opacity:1"
     d="m 175.47458,33.915256 h 66.35592 l 0.73729,56.771184 77.78389,0.368642 -0.36864,63.775418 H 175.47458 Z"
     id="rect814"
     inkscape:connector-curvature="0"
     sodipodi:nodetypes="ccccccc" />
  <text
     xml:space="preserve"
     style="font-style:normal;font-variant:normal;font-weight:normal;font-stretch:normal;font-size:26.66666603px;line-height:1.25;font-family:'special elite';-inkscape-font-specification:'special elite';letter-spacing:0px;word-spacing:0px;fill:#000000;fill-opacity:1;stroke:none"
     x="41.288132"
     y="110.59322"
     id="text819"><tspan
       sodipodi:role="line"
       id="tspan817"
       x="41.288132"
       y="110.59322"
       style="font-size:53.33333206px">USA</tspan></text>
  <text
     xml:space="preserve"
     style="font-style:normal;font-variant:normal;font-weight:normal;font-stretch:normal;font-size:53.33333206px;line-height:1.25;font-family:'special elite';-inkscape-font-specification:'special elite';letter-spacing:0px;word-spacing:0px;fill:#000000;fill-opacity:1;stroke:none"
     x="182.84746"
     y="143.03391"
     id="text823"><tspan
       sodipodi:role="line"
       id="tspan821"
       x="182.84746"
       y="143.03391">→</tspan></text>
  <text
     xml:space="preserve"
     style="font-style:normal;font-variant:normal;font-weight:normal;font-stretch:normal;font-size:41.33333206px;line-height:1.25;font-family:'special elite';-inkscape-font-specification:'special elite';letter-spacing:0px;word-spacing:0px;fill:#000000;fill-opacity:1;stroke:none"
     x="250.67796"
     y="138.61017"
     id="text827"><tspan
       sodipodi:role="line"
       id="tspan825"
       x="250.67796"
       y="138.61017">NE</tspan></text>
  <text
     xml:space="preserve"
     style="font-style:normal;font-variant:normal;font-weight:normal;font-stretch:normal;font-size:41.33333206px;line-height:1.25;font-family:'special elite';-inkscape-font-specification:'special elite';letter-spacing:0px;word-spacing:0px;fill:#000000;fill-opacity:1;stroke:none"
     x="182.84746"
     y="79.627113"
     id="text831"><tspan
       sodipodi:role="line"
       id="tspan829"
       x="182.84746"
       y="79.627113">KT</tspan></text>
</svg>
